<svg width="40" height="41" viewBox="0 0 40 41" fill="none" xmlns="http://www.w3.org/2000/svg">
<path d="M39.5 20.5C39.5 31.5574 30.758 40.5 20 40.5C9.24201 40.5 0.5 31.5574 0.5 20.5C0.5 9.44259 9.24201 0.5 20 0.5C30.758 0.5 39.5 9.44259 39.5 20.5Z" stroke="#6D7982"/>
<path d="M27 21.1678C27 21.2878 26.964 21.3838 26.892 21.4558C26.82 21.5278 26.724 21.5638 26.604 21.5638L15.876 21.5638L18.36 24.7858C18.432 24.8818 18.462 24.9838 18.45 25.0918C18.438 25.1878 18.384 25.2718 18.288 25.3438L18.036 25.5418C17.94 25.6138 17.844 25.6438 17.748 25.6318C17.64 25.6198 17.55 25.5658 17.478 25.4698L14.526 21.6358C14.466 21.5518 14.43 21.4738 14.418 21.4018C14.406 21.3298 14.4 21.2518 14.4 21.1678L14.4 20.8258C14.4 20.7058 14.436 20.6098 14.508 20.5378C14.58 20.4658 14.676 20.4298 14.796 20.4298L26.604 20.4298C26.724 20.4298 26.82 20.4658 26.892 20.5378C26.964 20.6098 27 20.7058 27 20.8258L27 21.1678Z" fill="#6D7982"/>
</svg>
