<svg width="69" height="49" viewBox="0 0 69 49" fill="none" xmlns="http://www.w3.org/2000/svg">
<path d="M56.0001 16.6256C58.1499 17.6958 60.2996 18.4768 62.0718 19.7206C67.9691 23.7702 70.2642 31.262 67.9401 38.0306C65.6741 44.6835 59.1667 49.1959 52.1363 48.9935C45.0188 48.791 38.7728 43.9025 36.9136 36.8736C35.432 31.2909 36.3325 25.7372 38.0756 20.3859C41.4746 9.9148 48.9116 3.46437 59.2829 0.195766C60.9097 -0.324897 62.3913 0.22469 63.2629 1.4685C64.1925 2.79908 64.0182 4.24537 62.9723 5.7495C60.8226 8.87348 58.7309 12.0264 56.6392 15.2082C56.3197 15.671 56.1453 16.2495 56.0001 16.6256Z" fill="#ECF5FF"/>
<path d="M18.9449 16.8912C19.4233 17.0361 19.761 17.1521 20.1269 17.268C27.4441 19.4129 32.0878 26.4563 31.4405 34.4852C30.8495 41.8475 24.9113 48.0503 17.6784 48.8909C8.58818 49.9633 0.3985 43.0069 0.0326385 33.4418C-0.530226 18.6593 6.28044 5.47105 21.8155 0.311684C23.8137 -0.354976 25.249 0.0508144 26.1777 1.50007C27.1064 2.92035 26.7687 4.36961 25.5585 6.10872C23.5041 9.12319 21.5904 12.2826 19.6203 15.384C19.3108 15.8188 19.17 16.3405 18.9449 16.8912Z" fill="#ECF5FF"/>
</svg>
