<svg width="40" height="41" viewBox="0 0 40 41" fill="none" xmlns="http://www.w3.org/2000/svg">
<path d="M39.5 20.5C39.5 31.5574 30.758 40.5 20 40.5C9.24201 40.5 0.5 31.5574 0.5 20.5C0.5 9.44259 9.24201 0.5 20 0.5C30.758 0.5 39.5 9.44259 39.5 20.5Z" stroke="#0C6BAE"/>
<path d="M15 21.882C15 21.762 15.036 21.666 15.108 21.594C15.18 21.522 15.276 21.486 15.396 21.486L26.124 21.486L23.64 18.264C23.568 18.168 23.538 18.066 23.55 17.958C23.562 17.862 23.616 17.778 23.712 17.706L23.964 17.508C24.06 17.436 24.156 17.406 24.252 17.418C24.36 17.43 24.45 17.484 24.522 17.58L27.474 21.414C27.534 21.498 27.57 21.576 27.582 21.648C27.594 21.72 27.6 21.798 27.6 21.882L27.6 22.224C27.6 22.344 27.564 22.44 27.492 22.512C27.42 22.584 27.324 22.62 27.204 22.62L15.396 22.62C15.276 22.62 15.18 22.584 15.108 22.512C15.036 22.44 15 22.344 15 22.224L15 21.882Z" fill="#2560A2"/>
</svg>
