<svg width="20" height="20" viewBox="0 0 20 20" fill="none" xmlns="http://www.w3.org/2000/svg">
<path d="M19.3536 6.7253L13.358 5.85394L10.6778 0.420339C10.6046 0.271571 10.4841 0.151139 10.3354 0.0779352C9.96227 -0.106255 9.50887 0.0472369 9.32232 0.420339L6.64213 5.85394L0.646516 6.7253C0.481218 6.74891 0.330088 6.82684 0.214379 6.94491C0.0744931 7.08868 -0.00259025 7.28212 6.6464e-05 7.4827C0.00272317 7.68328 0.0849026 7.8746 0.228547 8.01462L4.56645 12.2439L3.5416 18.2159C3.51757 18.3548 3.53294 18.4977 3.58598 18.6283C3.63901 18.759 3.72759 18.8721 3.84166 18.955C3.95573 19.0378 4.09074 19.087 4.23137 19.0971C4.37199 19.1071 4.51262 19.0775 4.63729 19.0117L10 16.1922L15.3628 19.0117C15.5092 19.0896 15.6792 19.1156 15.8422 19.0873C16.2531 19.0164 16.5293 18.6268 16.4585 18.2159L15.4336 12.2439L19.7715 8.01462C19.8896 7.89891 19.9675 7.74778 19.9912 7.58249C20.0549 7.16924 19.7668 6.78669 19.3536 6.7253Z" fill="#F7B956"/>
</svg>
