<svg width="20" height="16" viewBox="0 0 20 16" fill="none" xmlns="http://www.w3.org/2000/svg">
<path d="M17.606 2.99484C17.53 2.69686 17.314 2.47187 17.067 2.40287C16.63 2.27988 14.5 1.99989 10 1.99989C5.5 1.99989 3.372 2.27988 2.931 2.40287C2.687 2.47087 2.471 2.69586 2.394 2.99484C2.285 3.41882 2 5.19572 2 7.99957C2 10.8034 2.285 12.5793 2.394 13.0053C2.47 13.3023 2.686 13.5273 2.932 13.5953C3.372 13.7193 5.5 13.9992 10 13.9992C14.5 13.9992 16.629 13.7193 17.069 13.5963C17.313 13.5283 17.529 13.3033 17.606 13.0043C17.715 12.5803 18 10.7994 18 7.99957C18 5.19972 17.715 3.41982 17.606 2.99484ZM19.543 2.49787C20 4.27977 20 7.99957 20 7.99957C20 7.99957 20 11.7194 19.543 13.5013C19.289 14.4862 18.546 15.2612 17.605 15.5232C15.896 15.9991 10 15.9991 10 15.9991C10 15.9991 4.107 15.9991 2.395 15.5232C1.45 15.2572 0.708 14.4832 0.457 13.5013C2.98023e-08 11.7194 0 7.99957 0 7.99957C0 7.99957 2.98023e-08 4.27977 0.457 2.49787C0.711 1.51292 1.454 0.73796 2.395 0.475974C4.107 -1.78804e-07 10 0 10 0C10 0 15.896 -1.78804e-07 17.605 0.475974C18.55 0.74196 19.292 1.51592 19.543 2.49787V2.49787ZM8 11.4994V4.49976L14 7.99957L8 11.4994Z" fill="#A7BCCB"/>
</svg>
